<?xml version="1.0" encoding="UTF-8" standalone="no"?>
<svg
   width="64"
   height="64"
   viewBox="0 0 16.933 16.933"
   version="1.1"
   id="svg304"
   sodipodi:docname="view-apps.svg"
   inkscape:version="1.2.2 (732a01da63, 2022-12-09, custom)"
   xml:space="preserve"
   xmlns:inkscape="http://www.inkscape.org/namespaces/inkscape"
   xmlns:sodipodi="http://sodipodi.sourceforge.net/DTD/sodipodi-0.dtd"
   xmlns="http://www.w3.org/2000/svg"
   xmlns:svg="http://www.w3.org/2000/svg"><sodipodi:namedview
     id="namedview306"
     pagecolor="#505050"
     bordercolor="#eeeeee"
     borderopacity="1"
     inkscape:showpageshadow="0"
     inkscape:pageopacity="0"
     inkscape:pagecheckerboard="0"
     inkscape:deskcolor="#505050"
     showgrid="false"
     inkscape:zoom="4.9061979"
     inkscape:cx="51.771251"
     inkscape:cy="16.611641"
     inkscape:window-width="1920"
     inkscape:window-height="1048"
     inkscape:window-x="0"
     inkscape:window-y="0"
     inkscape:window-maximized="1"
     inkscape:current-layer="svg304" /><defs
     id="defs284"><linearGradient
       id="a"
       x1="6.879"
       x2="6.879"
       y1="285.36"
       y2="283.77"
       gradientTransform="translate(0 -280.06) scale(.99998)"
       gradientUnits="userSpaceOnUse"><stop
         offset="0"
         id="stop253" /><stop
         stop-opacity="0"
         offset="1"
         id="stop255" /></linearGradient><linearGradient
       id="b"
       x1="445.28"
       x2="445.28"
       y1="179.28"
       y2="200.07"
       gradientTransform="matrix(.38956 0 0 .38184 -165.52 -63.44)"
       gradientUnits="userSpaceOnUse"><stop
         stop-color="#60c0f0"
         offset="0"
         id="stop258" /><stop
         stop-color="#83d4fb"
         offset="1"
         id="stop260" /></linearGradient><linearGradient
       id="c"
       x1="8.467"
       x2="8.467"
       y1="293.3"
       y2="292.77"
       gradientTransform="translate(0 -280.07)"
       gradientUnits="userSpaceOnUse"><stop
         stop-color="#008ea2"
         stop-opacity=".25"
         offset="0"
         id="stop263" /><stop
         stop-color="#fff"
         stop-opacity=".15"
         offset="1"
         id="stop265" /></linearGradient><linearGradient
       id="d"
       x1="8.467"
       x2="8.467"
       y1="294.62"
       y2="293.56"
       gradientTransform="translate(0 -280.06) scale(.99998)"
       gradientUnits="userSpaceOnUse"><stop
         stop-color="#008ea2"
         stop-opacity=".251"
         offset="0"
         id="stop268" /><stop
         stop-color="#008ea2"
         stop-opacity=".15"
         offset=".757"
         id="stop270" /><stop
         stop-color="#fff"
         stop-opacity=".15"
         offset="1"
         id="stop272" /></linearGradient><linearGradient
       id="e"
       x1="1.058"
       x2="15.875"
       y1="289.59"
       y2="289.59"
       gradientTransform="translate(0 -280.07)"
       gradientUnits="userSpaceOnUse"><stop
         stop-color="#46a2d7"
         stop-opacity=".5"
         offset="0"
         id="stop275" /><stop
         stop-color="#46a2d7"
         stop-opacity="0"
         offset=".108"
         id="stop277" /><stop
         stop-color="#46a2d7"
         stop-opacity=".096"
         offset=".894"
         id="stop279" /><stop
         stop-color="#46a2d7"
         stop-opacity=".5"
         offset="1"
         id="stop281" /></linearGradient><linearGradient
       id="linearGradient5852"
       x1="19.306999"
       x2="19.306999"
       y1="24.990999"
       y2="15.954"
       gradientUnits="userSpaceOnUse"
       gradientTransform="matrix(0.38381141,0,0,0.38381141,19.735008,-3.6254232)"><stop
         stop-color="#009ef8"
         offset="0"
         id="stop7492"
         style="stop-color:#0099e6;stop-opacity:1;" /><stop
         stop-color="#27affa"
         offset="1"
         id="stop7494"
         style="stop-color:#037bb9;stop-opacity:1;" /></linearGradient><linearGradient
       id="linearGradient1769-9"
       x1="445.28"
       x2="445.28"
       y1="179.28"
       y2="200.07001"
       gradientTransform="matrix(0.38803334,0,0,0.38034944,-141.28924,-63.06246)"
       gradientUnits="userSpaceOnUse"><stop
         stop-color="#3ab8fb"
         offset="0"
         id="stop7487"
         style="stop-color:#47beff;stop-opacity:1;" /><stop
         stop-color="#60c4fb"
         offset="1"
         id="stop7489"
         style="stop-color:#87cefb;stop-opacity:1;" /></linearGradient></defs><path
     id="path446"
     style="opacity:1;fill:#ffffff;fill-opacity:1;stroke-width:0.594676"
     d="M 15.110429,1.9265008 C 14.724913,1.9577299 13.727164,3.0379587 13.067889,3.4824016 12.805456,3.659318 12.489111,3.746828 12.269732,3.5918534 6.8439956,-0.24101112 -0.19085081,5.9299961 3.6053516,12.20235 c 0.096996,0.160256 0.1250489,0.403035 0.025259,0.561572 C 3.0900065,13.622781 1.8879609,14.81549 2.0612387,15.059044 2.748127,16.024512 15.860862,2.4865037 15.209777,1.9526009 c -0.02573,-0.021099 -0.05947,-0.02933 -0.09935,-0.026099 z M 8.7142291,4.6409077 A 3.8689449,3.8689449 0 0 1 11.536404,5.8634011 C 9.9214328,7.9079839 8.0648502,9.6881052 6.150529,11.404193 A 3.8689449,3.8689449 0 0 1 4.8455258,8.510453 3.8689449,3.8689449 0 0 1 8.7142291,4.6409077 Z" /><path
     id="path1150"
     style="opacity:1;fill:#ffffff;fill-opacity:1;stroke-width:0.615144;stroke-dasharray:none"
     d="m 13.52816,4.8838613 -1.490803,1.6471964 c 0.3527,0.596343 0.538793,1.2764557 0.538839,1.969292 3.32e-4,2.1368993 -1.731803,3.8694113 -3.8687024,3.8695453 C 8.0295185,12.36978 7.3634763,12.191511 6.7760888,11.852946 l -1.6972535,1.49745 C 6.1291376,14.15035 7.5328992,14.681361 8.8531487,14.682698 12.189492,14.682807 14.89416,11.978138 14.89405,8.6417952 14.893809,7.2976143 14.354045,5.944397 13.52816,4.8838613 Z"
     sodipodi:nodetypes="ccccccccc" /><path
     style="opacity:1;fill:none;fill-opacity:1;stroke:#ffffff;stroke-width:0.403482;stroke-linecap:round;stroke-dasharray:none"
     d="M 5.5762009,7.3978192 C 6.8782801,4.5369892 9.8294933,5.098968 10.811373,5.9272235"
     id="path1233"
     sodipodi:nodetypes="cc" /></svg>
